<mxfile host="app.diagrams.net" agent="Mozilla/5.0 (Windows NT 10.0; Win64; x64) AppleWebKit/537.36 (KHTML, like Gecko) Chrome/132.0.0.0 Safari/537.36" version="26.0.6" pages="2">
  <diagram id="5Kp6jnc5ZAHIj93xyVAl" name="SSE">
    <mxGraphModel dx="1302" dy="675" grid="1" gridSize="10" guides="1" tooltips="1" connect="1" arrows="1" fold="1" page="1" pageScale="1" pageWidth="827" pageHeight="1169" math="0" shadow="0">
      <root>
        <mxCell id="0" />
        <mxCell id="1" parent="0" />
        <mxCell id="hfpGwMWX1kQVqWP4ocAl-7" style="edgeStyle=orthogonalEdgeStyle;rounded=0;orthogonalLoop=1;jettySize=auto;html=1;endSize=10;" edge="1" parent="1" source="hfpGwMWX1kQVqWP4ocAl-23" target="hfpGwMWX1kQVqWP4ocAl-3">
          <mxGeometry relative="1" as="geometry" />
        </mxCell>
        <mxCell id="hfpGwMWX1kQVqWP4ocAl-8" style="edgeStyle=orthogonalEdgeStyle;rounded=0;orthogonalLoop=1;jettySize=auto;html=1;endSize=10;" edge="1" parent="1" source="hfpGwMWX1kQVqWP4ocAl-19" target="hfpGwMWX1kQVqWP4ocAl-5">
          <mxGeometry relative="1" as="geometry" />
        </mxCell>
        <mxCell id="hfpGwMWX1kQVqWP4ocAl-9" style="edgeStyle=orthogonalEdgeStyle;rounded=0;orthogonalLoop=1;jettySize=auto;html=1;strokeWidth=1;endArrow=classic;endFill=1;endSize=10;" edge="1" parent="1" source="hfpGwMWX1kQVqWP4ocAl-10" target="hfpGwMWX1kQVqWP4ocAl-6">
          <mxGeometry relative="1" as="geometry" />
        </mxCell>
        <mxCell id="hfpGwMWX1kQVqWP4ocAl-2" value="Web server" style="sketch=0;outlineConnect=0;fontColor=#232F3E;gradientColor=none;fillColor=#232F3D;strokeColor=none;dashed=0;verticalLabelPosition=bottom;verticalAlign=top;align=center;html=1;fontSize=12;fontStyle=0;aspect=fixed;pointerEvents=1;shape=mxgraph.aws4.traditional_server;" vertex="1" parent="1">
          <mxGeometry x="206.5" y="330" width="45" height="78" as="geometry" />
        </mxCell>
        <mxCell id="hfpGwMWX1kQVqWP4ocAl-3" value="Client 1" style="sketch=0;outlineConnect=0;fontColor=#232F3E;gradientColor=none;fillColor=#232F3D;strokeColor=none;dashed=0;verticalLabelPosition=top;verticalAlign=bottom;align=center;html=1;fontSize=12;fontStyle=0;aspect=fixed;pointerEvents=1;shape=mxgraph.aws4.client;labelPosition=center;" vertex="1" parent="1">
          <mxGeometry x="60" y="110" width="78" height="76" as="geometry" />
        </mxCell>
        <mxCell id="hfpGwMWX1kQVqWP4ocAl-5" value="Client 2" style="sketch=0;outlineConnect=0;fontColor=#232F3E;gradientColor=none;fillColor=#232F3D;strokeColor=none;dashed=0;verticalLabelPosition=top;verticalAlign=bottom;align=center;html=1;fontSize=12;fontStyle=0;aspect=fixed;pointerEvents=1;shape=mxgraph.aws4.client;labelPosition=center;" vertex="1" parent="1">
          <mxGeometry x="190" y="110" width="78" height="76" as="geometry" />
        </mxCell>
        <mxCell id="hfpGwMWX1kQVqWP4ocAl-6" value="Client N" style="sketch=0;outlineConnect=0;fontColor=#232F3E;gradientColor=none;fillColor=#232F3D;strokeColor=none;dashed=0;verticalLabelPosition=top;verticalAlign=bottom;align=center;html=1;fontSize=12;fontStyle=0;aspect=fixed;pointerEvents=1;shape=mxgraph.aws4.client;labelPosition=center;" vertex="1" parent="1">
          <mxGeometry x="320" y="110" width="78" height="76" as="geometry" />
        </mxCell>
        <mxCell id="hfpGwMWX1kQVqWP4ocAl-13" value="" style="edgeStyle=orthogonalEdgeStyle;rounded=0;orthogonalLoop=1;jettySize=auto;html=1;endArrow=none;endFill=0;" edge="1" parent="1" source="hfpGwMWX1kQVqWP4ocAl-16" target="hfpGwMWX1kQVqWP4ocAl-10">
          <mxGeometry relative="1" as="geometry">
            <mxPoint x="252" y="319" as="sourcePoint" />
            <mxPoint x="359" y="186" as="targetPoint" />
          </mxGeometry>
        </mxCell>
        <mxCell id="hfpGwMWX1kQVqWP4ocAl-10" value="" style="shape=message;html=1;html=1;outlineConnect=0;labelPosition=center;verticalLabelPosition=bottom;align=center;verticalAlign=top;aspect=fixed;" vertex="1" parent="1">
          <mxGeometry x="340.25" y="230" width="37.5" height="25" as="geometry" />
        </mxCell>
        <mxCell id="hfpGwMWX1kQVqWP4ocAl-18" value="" style="edgeStyle=orthogonalEdgeStyle;rounded=0;orthogonalLoop=1;jettySize=auto;html=1;endArrow=none;endFill=0;" edge="1" parent="1" source="hfpGwMWX1kQVqWP4ocAl-2">
          <mxGeometry relative="1" as="geometry">
            <mxPoint x="270" y="332.2999999999999" as="sourcePoint" />
            <mxPoint x="358.75" y="305.7" as="targetPoint" />
          </mxGeometry>
        </mxCell>
        <mxCell id="hfpGwMWX1kQVqWP4ocAl-16" value="" style="shape=message;html=1;html=1;outlineConnect=0;labelPosition=center;verticalLabelPosition=bottom;align=center;verticalAlign=top;aspect=fixed;" vertex="1" parent="1">
          <mxGeometry x="340.25" y="280" width="37.5" height="25" as="geometry" />
        </mxCell>
        <mxCell id="hfpGwMWX1kQVqWP4ocAl-20" value="" style="edgeStyle=orthogonalEdgeStyle;rounded=0;orthogonalLoop=1;jettySize=auto;html=1;endArrow=none;endFill=0;" edge="1" parent="1" source="hfpGwMWX1kQVqWP4ocAl-21" target="hfpGwMWX1kQVqWP4ocAl-19">
          <mxGeometry relative="1" as="geometry">
            <mxPoint x="229" y="370" as="sourcePoint" />
            <mxPoint x="229" y="186" as="targetPoint" />
          </mxGeometry>
        </mxCell>
        <mxCell id="hfpGwMWX1kQVqWP4ocAl-19" value="" style="shape=message;html=1;html=1;outlineConnect=0;labelPosition=center;verticalLabelPosition=bottom;align=center;verticalAlign=top;aspect=fixed;" vertex="1" parent="1">
          <mxGeometry x="210.25" y="230" width="37.5" height="25" as="geometry" />
        </mxCell>
        <mxCell id="hfpGwMWX1kQVqWP4ocAl-22" value="" style="edgeStyle=orthogonalEdgeStyle;rounded=0;orthogonalLoop=1;jettySize=auto;html=1;endArrow=none;endFill=0;" edge="1" parent="1" source="hfpGwMWX1kQVqWP4ocAl-2" target="hfpGwMWX1kQVqWP4ocAl-21">
          <mxGeometry relative="1" as="geometry">
            <mxPoint x="229" y="370" as="sourcePoint" />
            <mxPoint x="229" y="255" as="targetPoint" />
          </mxGeometry>
        </mxCell>
        <mxCell id="hfpGwMWX1kQVqWP4ocAl-21" value="" style="shape=message;html=1;html=1;outlineConnect=0;labelPosition=center;verticalLabelPosition=bottom;align=center;verticalAlign=top;aspect=fixed;" vertex="1" parent="1">
          <mxGeometry x="210.25" y="280" width="37.5" height="25" as="geometry" />
        </mxCell>
        <mxCell id="hfpGwMWX1kQVqWP4ocAl-24" value="" style="edgeStyle=orthogonalEdgeStyle;rounded=0;orthogonalLoop=1;jettySize=auto;html=1;endArrow=none;endFill=0;" edge="1" parent="1" source="hfpGwMWX1kQVqWP4ocAl-25" target="hfpGwMWX1kQVqWP4ocAl-23">
          <mxGeometry relative="1" as="geometry">
            <mxPoint x="207" y="409" as="sourcePoint" />
            <mxPoint x="99" y="186" as="targetPoint" />
          </mxGeometry>
        </mxCell>
        <mxCell id="hfpGwMWX1kQVqWP4ocAl-23" value="" style="shape=message;html=1;html=1;outlineConnect=0;labelPosition=center;verticalLabelPosition=bottom;align=center;verticalAlign=top;aspect=fixed;" vertex="1" parent="1">
          <mxGeometry x="80.25" y="230" width="37.5" height="25" as="geometry" />
        </mxCell>
        <mxCell id="hfpGwMWX1kQVqWP4ocAl-26" value="" style="edgeStyle=orthogonalEdgeStyle;rounded=0;orthogonalLoop=1;jettySize=auto;html=1;endArrow=none;endFill=0;" edge="1" parent="1" source="hfpGwMWX1kQVqWP4ocAl-2" target="hfpGwMWX1kQVqWP4ocAl-25">
          <mxGeometry relative="1" as="geometry">
            <mxPoint x="207" y="409" as="sourcePoint" />
            <mxPoint x="99" y="255" as="targetPoint" />
          </mxGeometry>
        </mxCell>
        <mxCell id="hfpGwMWX1kQVqWP4ocAl-25" value="" style="shape=message;html=1;html=1;outlineConnect=0;labelPosition=center;verticalLabelPosition=bottom;align=center;verticalAlign=top;aspect=fixed;" vertex="1" parent="1">
          <mxGeometry x="80.25" y="280" width="37.5" height="25" as="geometry" />
        </mxCell>
        <mxCell id="hfpGwMWX1kQVqWP4ocAl-29" value="" style="endArrow=none;dashed=1;html=1;dashPattern=1 3;strokeWidth=2;rounded=0;" edge="1" parent="1">
          <mxGeometry width="50" height="50" relative="1" as="geometry">
            <mxPoint x="280" y="140" as="sourcePoint" />
            <mxPoint x="300" y="140" as="targetPoint" />
          </mxGeometry>
        </mxCell>
      </root>
    </mxGraphModel>
  </diagram>
  <diagram id="gXSCYrAwBJRRF0-VmGLA" name="Processes">
    <mxGraphModel dx="1167" dy="580" grid="1" gridSize="10" guides="1" tooltips="1" connect="1" arrows="1" fold="1" page="1" pageScale="1" pageWidth="827" pageHeight="1169" math="0" shadow="0">
      <root>
        <mxCell id="0" />
        <mxCell id="1" parent="0" />
        <mxCell id="37dmQMIZvqo6eHHW6v80-1" value="Beeper" style="verticalLabelPosition=bottom;sketch=0;aspect=fixed;html=1;verticalAlign=top;strokeColor=none;align=center;outlineConnect=0;shape=mxgraph.citrix.process;" vertex="1" parent="1">
          <mxGeometry x="30" y="30" width="52" height="62" as="geometry" />
        </mxCell>
        <mxCell id="37dmQMIZvqo6eHHW6v80-2" value="Event Pump" style="verticalLabelPosition=bottom;sketch=0;aspect=fixed;html=1;verticalAlign=top;strokeColor=none;align=center;outlineConnect=0;shape=mxgraph.citrix.process;" vertex="1" parent="1">
          <mxGeometry x="330" y="30" width="52" height="62" as="geometry" />
        </mxCell>
        <mxCell id="37dmQMIZvqo6eHHW6v80-3" value="Web Server" style="verticalLabelPosition=bottom;sketch=0;aspect=fixed;html=1;verticalAlign=top;strokeColor=none;align=center;outlineConnect=0;shape=mxgraph.citrix.process;" vertex="1" parent="1">
          <mxGeometry x="630" y="29" width="52" height="62" as="geometry" />
        </mxCell>
        <mxCell id="37dmQMIZvqo6eHHW6v80-12" style="edgeStyle=orthogonalEdgeStyle;rounded=0;orthogonalLoop=1;jettySize=auto;html=1;endArrow=classic;endFill=1;startArrow=none;startFill=0;" edge="1" parent="1">
          <mxGeometry relative="1" as="geometry">
            <mxPoint x="580" y="60" as="sourcePoint" />
            <mxPoint x="620" y="60" as="targetPoint" />
            <Array as="points">
              <mxPoint x="601" y="60" />
              <mxPoint x="601" y="60" />
            </Array>
          </mxGeometry>
        </mxCell>
        <mxCell id="37dmQMIZvqo6eHHW6v80-4" value="EventPublisher" style="swimlane;fontStyle=1;align=center;verticalAlign=top;childLayout=stackLayout;horizontal=1;startSize=26;horizontalStack=0;resizeParent=1;resizeParentMax=0;resizeLast=0;collapsible=1;marginBottom=0;whiteSpace=wrap;html=1;" vertex="1" parent="1">
          <mxGeometry x="440" y="30" width="128" height="60" as="geometry">
            <mxRectangle x="110" y="150" width="120" height="30" as="alternateBounds" />
          </mxGeometry>
        </mxCell>
        <mxCell id="37dmQMIZvqo6eHHW6v80-6" value="" style="line;strokeWidth=1;fillColor=none;align=left;verticalAlign=middle;spacingTop=-1;spacingLeft=3;spacingRight=3;rotatable=0;labelPosition=right;points=[];portConstraint=eastwest;strokeColor=inherit;" vertex="1" parent="37dmQMIZvqo6eHHW6v80-4">
          <mxGeometry y="26" width="128" height="8" as="geometry" />
        </mxCell>
        <mxCell id="37dmQMIZvqo6eHHW6v80-7" value="+ publish(EventDto)" style="text;strokeColor=none;fillColor=none;align=left;verticalAlign=top;spacingLeft=4;spacingRight=4;overflow=hidden;rotatable=0;points=[[0,0.5],[1,0.5]];portConstraint=eastwest;whiteSpace=wrap;html=1;" vertex="1" parent="37dmQMIZvqo6eHHW6v80-4">
          <mxGeometry y="34" width="128" height="26" as="geometry" />
        </mxCell>
        <mxCell id="37dmQMIZvqo6eHHW6v80-14" value="channel" style="edgeStyle=orthogonalEdgeStyle;rounded=0;orthogonalLoop=1;jettySize=auto;html=1;entryX=0;entryY=0.5;entryDx=0;entryDy=0;strokeColor=#006600;fontColor=#006600;" edge="1" parent="1" source="37dmQMIZvqo6eHHW6v80-8" target="37dmQMIZvqo6eHHW6v80-11">
          <mxGeometry relative="1" as="geometry" />
        </mxCell>
        <mxCell id="37dmQMIZvqo6eHHW6v80-8" value="&lt;font style=&quot;font-size: 30px;&quot;&gt;🎤&lt;/font&gt;" style="text;strokeColor=none;align=center;fillColor=none;html=1;verticalAlign=middle;whiteSpace=wrap;rounded=0;" vertex="1" parent="1">
          <mxGeometry x="82" y="46" width="60" height="30" as="geometry" />
        </mxCell>
        <mxCell id="37dmQMIZvqo6eHHW6v80-11" value="&lt;font style=&quot;font-size: 30px;&quot;&gt;🔊&lt;/font&gt;" style="text;strokeColor=none;align=center;fillColor=none;html=1;verticalAlign=middle;whiteSpace=wrap;rounded=0;" vertex="1" parent="1">
          <mxGeometry x="260" y="46" width="60" height="30" as="geometry" />
        </mxCell>
        <mxCell id="37dmQMIZvqo6eHHW6v80-13" style="edgeStyle=orthogonalEdgeStyle;rounded=0;orthogonalLoop=1;jettySize=auto;html=1;" edge="1" parent="1">
          <mxGeometry relative="1" as="geometry">
            <mxPoint x="390" y="60" as="sourcePoint" />
            <mxPoint x="430" y="60" as="targetPoint" />
            <Array as="points">
              <mxPoint x="410" y="60" />
              <mxPoint x="410" y="60" />
            </Array>
          </mxGeometry>
        </mxCell>
      </root>
    </mxGraphModel>
  </diagram>
</mxfile>
